Coordinates
version=1
nRows=21
nColumns=27
inDegrees=yes

Units are S.I. units (second, meters, Newtons, ...)
If the header above contains a line with 'inDegrees', this indicates whether rotational values are in degrees (yes) or radians (no).

endheader
time	pelvis_rotation	pelvis_tilt	pelvis_list	pelvis_tx	pelvis_ty	pelvis_tz	hip_flexion_r	hip_adduction_r	hip_rotation_r	knee_angle_r	knee_rotation_r	knee_adduction_r	knee_angle_r_beta	ankle_angle_r	subtalar_angle_r	mtp_angle_r	hip_flexion_l	hip_adduction_l	hip_rotation_l	knee_angle_l	knee_rotation_l	knee_adduction_l	knee_angle_l_beta	ankle_angle_l	subtalar_angle_l	mtp_angle_l
      7.26500000	      4.27159853	    -46.42558245	      5.23973298	     -0.11156641	      0.73634554	     -1.19031950	    104.85693248	    -13.20385571	     -9.99966927	     75.18666399	     -9.10831113	      9.18819112	      1.31225484	     14.93590465	     -1.06189154	      0.00000000	    102.66350167	     -9.39255119	    -14.43880974	     71.62683298	     -9.14906351	     -9.51390741	      1.25012407	     14.36031533	      5.09221712	      0.00000000
      7.27000000	      3.87696254	    -46.35684330	      4.73713336	     -0.11172600	      0.73429397	     -1.18964002	    104.93180393	    -12.79895287	    -10.14133766	     75.51364837	     -9.16876877	      9.16416132	      1.31796179	     15.02334278	     -1.37086775	      0.00000000	    102.98996922	     -9.77043562	    -14.11331897	     72.18363074	     -9.17769247	     -9.51181202	      1.25984202	     14.58704294	      5.21159523	      0.00000000
      7.27500000	      4.44237982	    -46.34994334	      5.20948979	     -0.11205417	      0.73212942	     -1.18967858	    105.38324256	    -13.14559610	     -9.80245670	     76.07176438	     -9.17121703	      9.16722742	      1.32770276	     15.13082314	     -1.58005459	      0.00000000	    103.28821361	     -9.35507292	    -14.17152371	     72.53314954	     -9.22428758	     -9.50970317	      1.26594228	     14.60793722	      5.00674066	      0.00000000
      7.28000000	      4.19464501	    -46.31195157	      4.80742801	     -0.11230295	      0.73022266	     -1.18909571	    105.49458677	    -12.85285969	     -9.92474363	     76.38277615	     -9.21470176	      9.15486212	      1.33313094	     15.17253323	     -1.97320388	      0.00000000	    103.63090145	     -9.59692730	    -13.85153025	     73.01694499	     -9.24260532	     -9.50996339	      1.27438610	     14.70830187	      5.03512789	      0.00000000
      7.28500000	      4.17268668	    -46.26056527	      4.69536545	     -0.11253626	      0.72831640	     -1.18866743	    105.68131384	    -12.73466604	     -9.87636349	     76.75481374	     -9.23947686	      9.14741837	      1.33962422	     15.22975575	     -2.24839693	      0.00000000	    103.90597128	     -9.66897500	    -13.70036371	     73.43890944	     -9.27215879	     -9.50700035	      1.28175077	     14.83054972	      5.03971266	      0.00000000
      7.29000000	      4.14332166	    -46.23758498	      4.49571932	     -0.11277342	      0.72637361	     -1.18826281	    105.87048834	    -12.64152311	     -9.90703146	     77.12969405	     -9.26546133	      9.12427099	      1.34616711	     15.38904281	     -2.39779134	      0.00000000	    104.24170215	     -9.73213529	    -13.44495840	     73.89228297	     -9.29676820	     -9.49910009	      1.28966363	     15.00804572	      5.09883125	      0.00000000
      7.29500000	      4.76907365	    -46.24164053	      5.06629725	     -0.11315047	      0.72440773	     -1.18830560	    106.34044570	    -13.01411462	     -9.52096795	     77.65539196	     -9.27734388	      9.11222442	      1.35534227	     15.49239038	     -2.57794778	      0.00000000	    104.50118300	     -9.28741568	    -13.58103008	     74.17392430	     -9.32658195	     -9.49555630	      1.29457920	     15.00265722	      4.90857454	      0.00000000
      7.30000000	      5.04349163	    -46.20172240	      5.28207614	     -0.11345705	      0.72269446	     -1.18812347	    106.61654904	    -13.11230786	     -9.28396672	     78.04395309	     -9.28373903	      9.09353610	      1.36212394	     15.50474794	     -2.78705721	      0.00000000	    104.71207789	     -9.12322484	    -13.59651523	     74.47151868	     -9.35813284	     -9.49147115	      1.29977320	     15.05873332	      4.85617323	      0.00000000
      7.30500000	      4.67865034	    -46.35376131	      4.73465273	     -0.11424147	      0.72006708	     -1.18728004	    106.99554950	    -12.72125529	     -8.91249261	     78.49411641	     -8.82233187	      8.51090912	      1.36998077	     15.60254604	     -2.75444422	      0.00000000	    105.39609734	     -9.51882491	    -12.66410092	     75.15026810	     -8.89297836	     -9.09603735	      1.31161961	     15.20592097	      5.15251478	      0.00000000
      7.31000000	      5.25658178	    -46.15549979	      5.34715693	     -0.11410462	      0.71936195	     -1.18747267	    107.07749451	    -13.04976135	     -9.03447388	     78.73102941	     -9.31915454	      9.04992382	      1.37411569	     15.61085383	     -3.24421212	      0.00000000	    105.21316832	     -9.07111264	    -13.44816204	     75.13419740	     -9.39487871	     -9.48696427	      1.31133913	     15.20914094	      4.83599927	      0.00000000
      7.31500000	      4.98872502	    -46.30265369	      4.77334727	     -0.11486187	      0.71695158	     -1.18669686	    107.39962425	    -12.78273311	     -8.79823828	     79.13261936	     -8.87010457	      8.48535738	      1.38112475	     15.68014681	     -3.22046658	      0.00000000	    105.88342142	     -9.33851835	    -12.44163475	     75.74332038	     -8.94351722	     -9.08954111	      1.32197033	     15.30474264	      5.09753240	      0.00000000
      7.32000000	      4.78676871	    -46.02464206	      4.44362499	     -0.11463442	      0.71671890	     -1.18634135	    107.02088737	    -12.56309768	     -9.49910060	     79.06671109	     -9.38004023	      9.03128600	      1.37997444	     15.57075105	     -3.98406683	      0.00000000	    105.68951797	     -9.45524141	    -12.73267043	     75.80185460	     -9.39841945	     -9.49358197	      1.32299194	     15.29837330	      4.78653003	      0.00000000
      7.32500000	      5.80190104	    -46.29279349	      5.44967208	     -0.11561927	      0.71390204	     -1.18650659	    108.05100258	    -13.19856270	     -8.26520674	     79.87952329	     -8.88594882	      8.42981926	      1.39416069	     15.80750485	     -3.39978362	      0.00000000	    106.30281216	     -8.80001942	    -12.58831092	     76.18950957	     -8.99808957	     -9.08189842	      1.32975780	     15.34562439	      4.91413570	      0.00000000
      7.33000000	      5.89028520	    -46.11206843	      5.44188818	     -0.11552073	      0.71357070	     -1.18633248	    107.90398985	    -13.19412870	     -8.77319599	     79.92049090	     -9.37523260	      8.96953694	      1.39487571	     15.72208060	     -4.04815880	      0.00000000	    106.18863370	     -8.71175266	    -13.00836694	     76.20733272	     -9.43853010	     -9.47917405	      1.33006887	     15.31490845	      4.67845469	      0.00000000
      7.33500000	      6.18623398	    -46.12541488	      5.53900763	     -0.11589538	      0.71235892	     -1.18615032	    108.11394567	    -13.36149964	     -8.72567782	     80.17810148	     -9.38470379	      8.94757803	      1.39937186	     15.78978119	     -4.13906930	      0.00000000	    106.42682418	     -8.48216513	    -12.90020594	     76.39818363	     -9.45615932	     -9.47769973	      1.33339985	     15.28990979	      4.61299956	      0.00000000
      7.34000000	      5.83368754	    -46.07619298	      5.17665056	     -0.11625359	      0.71139652	     -1.18557329	    108.09760106	    -12.97717723	     -8.83526070	     80.25730161	     -9.40667827	      8.93178045	      1.40075416	     15.68391755	     -4.57599344	      0.00000000	    106.57877703	     -8.80006622	    -12.71414324	     76.64220823	     -9.45613297	     -9.48680980	      1.33765888	     15.28911959	      4.61472729	      0.00000000
      7.34500000	      6.55097274	    -46.15600210	      5.55096308	     -0.11668722	      0.71008558	     -1.18565329	    108.47473431	    -13.51737999	     -8.70479254	     80.62918071	     -9.40646060	      8.90423023	      1.40724468	     15.82996294	     -4.44298578	      0.00000000	    106.89645214	     -8.20930133	    -12.62683559	     76.78415505	     -9.47189917	     -9.47487369	      1.34013632	     15.28184362	      4.52804219	      0.00000000
      7.35000000	      6.48067398	    -46.13123631	      5.60079397	     -0.11708253	      0.70902616	     -1.18521983	    108.64318461	    -13.29923552	     -8.49564075	     80.82478806	     -9.41050495	      8.85932673	      1.41065867	     15.81415250	     -4.63151473	      0.00000000	    107.01176758	     -8.37646661	    -12.71873800	     76.97288932	     -9.48340049	     -9.47967807	      1.34343035	     15.32185496	      4.57202074	      0.00000000
      7.35500000	      5.94566396	    -46.11117070	      4.80187180	     -0.11739678	      0.70836044	     -1.18448505	    108.45215767	    -12.86820249	     -8.95992850	     80.78167291	     -9.43934690	      8.83268538	      1.40990617	     15.76592852	     -4.87841066	      0.00000000	    107.24840675	     -8.75676612	    -12.19614466	     77.21728195	     -9.47853871	     -9.48626397	      1.34769581	     15.30970061	      4.65721138	      0.00000000
      7.36000000	      6.83744312	    -46.21767645	      5.68231791	     -0.11794874	      0.70718648	     -1.18477236	    109.03864429	    -13.43553530	     -8.41904192	     81.19223592	     -9.42386007	      8.81944500	      1.41707184	     15.76091150	     -4.91871159	      0.00000000	    107.45432918	     -8.10872648	    -12.53782100	     77.25085554	     -9.50182256	     -9.47610870	      1.34828178	     15.25752135	      4.45778835	      0.00000000
      7.36500000	      6.85185792	    -46.18297790	      5.64368245	     -0.11833808	      0.70645408	     -1.18442458	    109.10251411	    -13.36669773	     -8.39212676	     81.30785904	     -9.42667941	      8.80993848	      1.41908985	     15.76971649	     -5.09576295	      0.00000000	    107.55414721	     -8.12745807	    -12.47540523	     77.36364451	     -9.50267998	     -9.48043610	      1.35025032	     15.25548474	      4.45413712	      0.00000000
